<?xml version="1.0" encoding="UTF-8" standalone="no"?>
<!-- Created with Inkscape (http://www.inkscape.org/) -->

<svg
   version="1.1"
   id="svg48"
   width="512"
   height="512"
   viewBox="0 0 512 512"
   sodipodi:docname="browser_manager_icon.svg"
   inkscape:version="1.2.2 (b0a8486541, 2022-12-01)"
   xmlns:inkscape="http://www.inkscape.org/namespaces/inkscape"
   xmlns:sodipodi="http://sodipodi.sourceforge.net/DTD/sodipodi-0.dtd"
   xmlns="http://www.w3.org/2000/svg"
   xmlns:svg="http://www.w3.org/2000/svg">
  <defs
     id="defs52" />
  <sodipodi:namedview
     id="namedview50"
     pagecolor="#ffffff"
     bordercolor="#000000"
     borderopacity="0.25"
     inkscape:showpageshadow="2"
     inkscape:pageopacity="0.0"
     inkscape:pagecheckerboard="0"
     inkscape:deskcolor="#d1d1d1"
     showgrid="false"
     inkscape:zoom="1.4142136"
     inkscape:cx="273.29677"
     inkscape:cy="211.07137"
     inkscape:window-width="1920"
     inkscape:window-height="1018"
     inkscape:window-x="0"
     inkscape:window-y="33"
     inkscape:window-maximized="1"
     inkscape:current-layer="g54" />
  <g
     inkscape:groupmode="layer"
     inkscape:label="Image"
     id="g54">
    <path
       style="fill:#000000"
       d="m 183.80693,367.90051 c 0.10961,0.16136 1.01989,2.54297 2.02344,5.29297 2.24901,6.16256 8.11022,18.04897 10.72461,21.75 1.06842,1.5125 1.79996,2.72747 1.625,2.70117 -5.79356,-0.87186 -37.81836,-12.27066 -37.81836,-13.46094 0,-0.49282 23.21786,-16.61804 23.44531,-16.2832 z"
       id="path246" />
    <path
       style="fill:#000000"
       d="m 90.154782,349.60744 3.645211,4.00479 c 5.04147,6.4344 19.779577,20.9988 25.921867,25.61719 2.56034,1.925 5.14586,2.86114 3.90886,3.80709 -0.72984,0.55812 -22.71796,11.52194 -29.96875,13.95898 -8.8679,2.98098 -17.101669,4.35928 -20.050349,2.21752 -5.14716,-3.7386 -0.79455,-20.0009 11.00976,-41.13672 z"
       id="path242"
       sodipodi:nodetypes="cccscscc" />
    <path
       style="fill:#000000"
       d="m 197.62139,330.88293 4.47461,0.31055 -4.25195,3.19531 -4.25391,3.19531 -0.62109,-3.10547 c -0.34159,-1.70759 -0.44236,-3.2842 -0.22266,-3.5039 0.2197,-0.21973 2.41406,-0.26185 4.875,-0.0918 z"
       id="path237" />
    <path
       style="fill:#000000"
       d="m 231.29327,330.69348 h 18.5332 c 10.1934,0 18.53516,0.37187 18.53516,0.82812 0,1.91743 -7.05828,26.20971 -9.42578,32.44141 -6.65897,17.52532 -15.48311,31.11135 -22.54688,34.71484 -4.6974,2.39662 -7.48553,2.48269 -11.52734,0.35547 -4.73502,-2.49184 -8.31428,-6.29564 -13.02149,-13.83984 -3.83951,-6.15442 -12.47851,-25.64382 -12.47851,-28.15235 0,-0.50734 7.18396,-6.64298 15.96484,-13.63476 z"
       id="path235" />
    <path
       style="fill:#000000"
       d="m 99.131163,330.69348 37.365227,0.002 37.36524,0.002 2.06054,9.52149 2.06055,9.52344 -17.73828,11.97461 v 0.002 c -9.75596,6.58617 -17.88356,11.96698 -18.06055,11.95898 -0.177,-0.008 -3.34334,-2.24319 -7.03515,-4.96679 -12.02393,-8.87077 -27.70687,-25.01499 -34.25977,-35.26758 z"
       id="path233" />
    <path
       style="fill:#000000"
       d="m 274.36163,293.7716 c 0,0.65762 -0.53065,5.18377 -1.17969,10.0586 l -1.17969,8.86328 h -9.98828 c -5.49227,0 -9.79752,-0.14495 -9.56836,-0.32227 0.22917,-0.17731 5.25352,-4.70575 11.16602,-10.06054 5.91214,-5.35514 10.75,-9.19669 10.75,-8.53907 z"
       id="path225" />
    <path
       style="fill:#000000"
       d="m 295.51788,270.38488 c 0.30825,0.0429 0.70139,0.29762 1.22461,0.64454 1.16507,0.77213 2.75748,3.07509 3.53711,5.11718 1.2534,3.28459 1.2234,4.25381 -0.25586,8.38086 -2.34791,6.55112 -2.16973,16.1086 0.40234,21.58008 2.52828,5.37867 13.20809,15.83755 18.37891,17.99805 4.95291,2.06958 14.83929,2.03379 20.72265,-0.0742 4.16122,-1.49137 5.08186,-1.5162 8.5,-0.22461 3.11737,1.17781 4.36937,2.51609 6.70118,7.16797 l 2.86718,5.7207 -2.84765,3.75 c -15.12243,19.90199 -43.24692,40.50814 -68.00977,49.83008 -3.78219,1.42381 -10.82457,3.64635 -15.64844,4.9375 l -8.76953,2.34766 2.08789,-2.93555 c 3.7768,-5.30401 10.65413,-21.20571 14.84571,-34.32813 6.88448,-21.55358 12.531,-52.86778 14.67382,-81.38867 0.51696,-6.87935 0.6651,-8.65224 1.58985,-8.52344 z"
       id="path221" />
    <path
       style="fill:#000000"
       d="m 183.14092,250.69348 h 47.24414 47.2461 l -0.51758,7.22461 -0.51758,7.22265 -10.86718,10.53125 c -5.97712,5.79161 -17.61755,16.47847 -25.86719,23.74805 l -15,13.21875 -18.11133,0.0273 -18.10938,0.0274 -0.66015,-5.25 c -1.64321,-13.09232 -3.53017,-33.29581 -4.15625,-44.5 z"
       id="path217" />
    <path
       style="fill:#000000"
       d="m 72.064751,250.69348 h 46.550779 46.54883 l 0.63477,11.75 c 0.65622,12.14961 3.177,39.91132 4.22265,46.5 l 0.59571,3.75 H 129.42608 88.236631 l -2.81446,-6.25 c -6.42993,-14.28364 -11.68169,-34.01973 -12.75586,-47.94931 z"
       id="path215" />
    <path
       style="fill:#000000"
       d="m 188.64092,170.69348 h 41.72071 41.7207 l 0.6582,5.25 c 1.4212,11.33947 3.50224,33.83013 4.16407,45 l 0.69726,11.75 h -47.23047 -47.23047 l 0.6836,-12.25 c 0.62608,-11.20419 2.51304,-31.40768 4.15625,-44.5 z"
       id="path193" />
    <path
       style="fill:#000000"
       d="m 88.252251,170.69348 h 41.181639 41.1836 l -0.59571,3.75 c -1.04565,6.58832 -3.56643,34.35039 -4.22265,46.5 l -0.63477,11.75 H 118.61553 72.064751 l 0.60156,-7.80078 c 1.06381,-13.79558 6.38724,-33.6123 13.01563,-48.44922 z"
       id="path191" />
    <path
       id="path185"
       style="fill:#9c9c9c;fill-opacity:1"
       d="M 382.36133 154.69336 C 375.64693 154.69336 373.0225 156.30795 370.28906 162.12305 C 367.50342 168.0489 362.8265 172.5621 356.4082 175.51562 C 349.15407 178.85436 343.05512 179.33829 335.75586 177.15625 C 332.51335 176.18698 329.00038 175.43964 327.94922 175.49414 C 325.78071 175.60652 317.55566 183.19454 316.42773 186.12305 C 315.99381 187.24932 316.44839 190.51509 317.52148 193.96289 C 319.91398 201.64963 319.84359 206.32959 317.22656 213.32422 C 314.65728 220.19089 308.85218 226.77204 302.89453 229.57227 C 296.97526 232.35482 295.36133 234.95181 295.36133 241.69336 C 295.36133 248.40741 296.97587 251.03255 302.79102 253.76562 C 308.72874 256.55685 313.23051 261.23081 316.20508 267.69336 C 319.57271 275.0103 320.00282 281.65192 317.59961 289.26172 C 315.32176 296.47451 315.68775 297.75421 321.68164 303.56836 C 326.69087 308.42707 328.42798 308.7696 335.64648 306.31836 C 342.07629 304.13505 347.16219 304.27291 353.95508 306.81445 C 360.90675 309.41554 366.73494 314.52527 369.91992 320.81055 C 373.129 327.14292 375.57633 328.69336 382.36133 328.69336 C 385.78982 328.69336 388.77305 328.09152 390.15625 327.12305 C 391.38875 326.25976 393.48104 323.4193 394.80273 320.81055 C 397.98773 314.52527 403.81549 309.41554 410.76758 306.81445 C 417.56007 304.27291 422.64668 304.13505 429.07617 306.31836 C 436.29466 308.7696 438.03142 308.42707 443.04102 303.56836 C 449.00401 297.78417 449.39122 296.46631 447.19922 289.42383 C 444.80672 281.73673 444.8795 277.05677 447.49609 270.0625 C 450.06539 263.19583 455.87053 256.61504 461.82812 253.81445 C 467.74772 251.0319 469.36133 248.43455 469.36133 241.69336 C 469.36133 234.97895 467.74438 232.35453 461.92969 229.62109 C 449.0636 223.5735 442.3763 207.30949 447.1543 193.6875 C 448.3474 190.28529 448.79226 187.41944 448.31836 186.1875 C 447.17306 183.20992 438.96398 175.60777 436.77148 175.49414 C 435.72029 175.43964 432.20734 176.18698 428.96484 177.15625 C 415.37506 181.21845 400.33129 174.66916 394.43359 162.12305 C 391.7006 156.30795 389.07542 154.69336 382.36133 154.69336 z M 383.01758 212.69141 A 29.474945 29.430105 0 0 1 412.49219 242.12109 A 29.474945 29.430105 0 0 1 383.01758 271.55078 A 29.474945 29.430105 0 0 1 353.54102 242.12109 A 29.474945 29.430105 0 0 1 383.01758 212.69141 z " />
    <path
       style="fill:#000000"
       d="m 262.32061,85.826296 9.12695,2.443359 c 17.43098,4.664746 36.36182,13.583705 51.28516,24.162105 8.47993,6.01097 31.19266,27.94873 33.4082,32.26953 1.12532,2.19409 0.94557,3.14611 -1.5,7.95508 -2.22204,4.37029 -3.547,5.7553 -6.61328,6.91797 -3.45689,1.31092 -4.32657,1.27658 -8.85937,-0.35352 -6.14652,-2.21056 -14.95156,-2.21136 -20.23438,0.004 -5.33241,2.23303 -15.96409,12.64114 -18.5664,18.17773 -2.70317,5.75075 -2.89815,14.36925 -0.47852,21.09766 1.61495,4.49067 1.65674,5.42268 0.39063,8.74023 -0.77963,2.04245 -2.35456,4.33363 -3.49805,5.0918 -2.05481,1.3624 -2.09179,1.21664 -3.2793,-12.38086 -2.57599,-29.50531 -7.96911,-58.33341 -14.78906,-79.07244 -3.69784,-11.24524 -10.81455,-27.218209 -14.31836,-32.138674 z"
       id="path181" />
    <path
       style="fill:#000000"
       d="m 198.40655,85.820396 -2.07617,2.916016 c -6.13796,8.619649 -14.29843,29.793988 -19.44727,50.457028 l -3.24023,13 -37.20313,0.26172 -37.205077,0.26172 1.695317,-2.87109 c 3.17599,-5.37696 16.92206,-20.54021 24.9375,-27.50782 18.51246,-16.09302 39.89524,-27.573059 63.30664,-33.988277 z"
       id="path179" />
    <path
       style="fill:#000000"
       d="m 230.36163,82.855506 c 2.14041,0 4.28144,0.898244 7.11523,2.695312 11.25962,7.140603 23.25909,32.631402 30.3125,64.392572 l 0.60938,2.75 h -38.03711 -38.03907 l 0.61133,-2.75 c 7.05377,-31.76117 19.05288,-57.251969 30.3125,-64.392572 2.83379,-1.797068 4.97482,-2.695313 7.11524,-2.695312 z"
       id="path173" />
    <path
       style="fill:#000000"
       d="m 398.4788,82.789096 c 2.4864,-0.07472 3.3866,0.408059 4.877,1.898438 1.9937,1.993658 2.1767,2.890909 1.5976,7.818357 -0.8373,7.12679 -7.2703,23.158809 -13.9179,34.687499 l -5.1895,9 -6.4922,0.25 -8.61531,0.40065 -5.33975,-9.2776 c -4.10418,-5.02087 -10.74204,-12.10027 -14.75,-15.73047 -4.00831,-3.63018 -7.03,-5.69518 -7.03,-6.08313 0,-1.32213 29.94296,-17.035572 38.00656,-19.582884 4.4197,-1.396254 10.6115,-2.807819 13.7578,-3.136719 1.2621,-0.131912 2.2668,-0.219235 3.0957,-0.244141 z"
       id="path171"
       sodipodi:nodetypes="sscscccccssss" />
    <path
       style="fill:#000000"
       d="M 226.64483,64.843781 C 193.49129,65.438257 160.79834,75.374453 132.21124,94.585971 57.607771,144.72188 32.214291,241.06692 72.441711,321.35354 l 6.117073,11.46567 -5.120983,8.29215 c -12.83813,21.37518 -18.818013,38.42362 -18.988783,51.34685 l 0.05238,0.72639 c 0.32789,1.00198 0.03892,2.15128 0.182261,3.41308 0.10323,0.90903 0.15052,2.5422 0.83203,3.02344 -0.15363,-0.34877 -0.0596,-0.44099 0.1582,-0.39648 l -0.11133,-1.75977 c -0.8321,-13.21056 6.02876,-32.30228 19.91016,-55.41015 2.68892,-4.47638 5.415225,-9.33827 5.406225,-9.81189 -0.009,-0.47361 -3.238465,-5.40016 -6.525365,-11.93811 C 46.038671,263.97981 50.207271,196.648 85.234471,144.58597 136.56362,68.294301 238.19407,44.467764 317.4044,90.156282 c 4.32509,2.494809 8.27631,5.108966 9.15751,5.108966 0.8812,0 6.18032,-3.084507 11.39913,-6.155841 19.25881,-11.334434 38.45536,-19.150632 52.66796,-21.44336 13.2094,-2.130921 22.9024,1.385873 27.6817,10.042969 5.6301,10.19904 2.0464,27.862454 -10.504,51.753904 -3.5448,6.74782 -6.4453,12.86457 -6.4453,13.59375 0,0.72921 0.9013,2.14066 2.002,3.13672 1.1007,0.99605 3.1364,4.21442 4.5254,7.15039 3.9391,8.32622 10.4935,11.15713 18.4531,7.97266 4.8041,-1.92237 11.689,-2.08922 17.4043,-0.42383 5.705,1.66229 17.7537,13.71134 19.416,19.41601 1.6654,5.71566 1.4965,12.59982 -0.4258,17.4043 -3.0296,7.57117 -0.2096,14.83629 6.9473,17.9043 5.7241,2.45326 10.3355,6.5249 12.9707,11.45117 1.8726,3.50094 2.207,5.71125 2.207,14.625 0,8.91375 -0.3344,11.12175 -2.207,14.62305 -2.6373,4.92996 -7.2481,8.99913 -12.9863,11.45898 -3.0454,1.3054 -4.7753,2.91351 -6.2578,5.82031 -2.4392,4.78119 -2.5641,7.62059 -0.5489,12.44336 1.7671,4.2294 1.9325,11.55648 0.3868,17.125 -1.5298,5.51037 -13.9057,17.8862 -19.4161,19.41602 -5.5685,1.54606 -12.8956,1.38044 -17.125,-0.38672 -4.8227,-2.01523 -7.6602,-1.89035 -12.4414,0.54883 -2.9064,1.48257 -4.5168,3.21243 -5.8222,6.25781 -2.4608,5.74055 -6.5287,10.35056 -11.4571,12.98242 -3.4335,1.83342 -5.8605,2.2212 -14.4804,2.3125 l -10.3536,0.10938 -8.25191,9.89453 c -14.03984,16.83302 -33.88984,32.78622 -52.21875,42.15625 0.21829,-0.0286 0.43579,-0.0608 0.6543,-0.0879 0.71694,-0.0888 1.39347,-0.12649 2.03125,-0.11914 0.69271,0.008 1.33207,0.0742 1.92968,0.18164 l 0.0645,-0.0371 c 21.173,-12.09686 37.12021,-25.73888 53.41992,-45.69922 l 2.85941,-3.5 10.6484,-0.53125 c 9.1274,-0.45523 11.2874,-0.90541 15.1113,-3.1543 5.7663,-3.39133 8.38,-6.259 11.7325,-12.86719 2.1734,-4.28338 3.5074,-5.67198 6.5625,-6.83007 3.4226,-1.29779 4.3341,-1.27247 8.5,0.2207 5.8837,2.10874 15.7674,2.14453 20.7207,0.0742 5.1704,-2.1605 15.853,-12.61938 18.3808,-17.99805 2.5721,-5.47148 2.7503,-15.02896 0.4024,-21.58008 -1.4932,-4.16588 -1.5166,-5.07738 -0.2188,-8.5 1.1597,-3.05806 2.5441,-4.38816 6.8496,-6.57226 6.5496,-3.32317 10.5081,-6.95204 13.3731,-12.26172 1.8543,-3.43625 2.1582,-5.62115 2.1582,-15.5 0,-9.87885 -0.3039,-12.06411 -2.1582,-15.5 -2.865,-5.31004 -6.8235,-8.93855 -13.3731,-12.26172 -4.3055,-2.18446 -5.6899,-3.51385 -6.8496,-6.57227 -1.2978,-3.42226 -1.2744,-4.33376 0.2188,-8.5 2.1089,-5.88336 2.1441,-15.76974 0.074,-20.72265 -2.1813,-5.22063 -12.6383,-15.86065 -18.1211,-18.4375 -5.7372,-2.69695 -14.3703,-2.89863 -21.0625,-0.49219 -4.5615,1.64043 -5.3228,1.66415 -8.8594,0.27539 -3.0432,-1.19491 -4.4508,-2.65073 -6.5957,-6.8164 -1.4997,-2.91302 -3.6633,-6.29074 -4.8067,-7.50782 l -2.08,-2.21289 6.5019,-12.37695 c 9.3098,-17.72243 12.9388,-28.98382 13.0078,-40.374999 0.074,-12.142138 -3.0386,-18.113082 -11.8964,-22.820312 -5.6452,-2.999857 -19.9747,-2.959202 -30.6778,0.08789 -10.75946,3.063162 -26.75847,10.254861 -41.10546,18.476563 l -12.21679,7.001949 -3,-1.789059 C 293.41879,72.998225 259.79838,64.249302 226.64483,64.843781 Z"
       id="path241"
       sodipodi:nodetypes="sccccccsccccscccscsccsssccscccscscccscccccccccscccccscccccccccscsccccccccccccscccs" />
    <path
       id="path4820"
       style="fill:none;stroke:#000000;stroke-width:2.199"
       d="m 343.15206,106.27596 c 10.62885,8.82234 20.18086,18.86366 28.45885,29.91665"
       sodipodi:nodetypes="cc" />
    <path
       id="path4906"
       style="fill:none;stroke:#000000;stroke-width:2.199"
       d="m 124.45788,382.00877 c -12.57944,-9.4817 -23.83383,-20.57975 -33.449247,-33.05061"
       sodipodi:nodetypes="cc" />
    <path
       id="path4912"
       style="fill:none;stroke:#000000;stroke-width:2.199"
       d="M 372.66325 345.4741 A 176.09943 175.87646 0 0 1 230.53999 417.5015 A 176.09943 175.87646 0 0 1 143.38771 394.45249 " />
    <path
       style="fill:none;stroke:#000000;stroke-width:1.4;stroke-dasharray:none;stroke-opacity:1"
       d="m 67.036538,354.11156 c -8.919451,17.92206 -12.300972,29.26023 -12.120493,40.65018 0.191928,12.14085 3.186385,17.90166 12.145148,22.41379 5.709614,2.8755 20.034781,2.52105 30.668584,-0.7597 10.689803,-3.29806 32.337143,-13.75049 46.500673,-22.2844"
       id="path4929"
       sodipodi:nodetypes="cccsc" />
    <path
       style="fill:#57c510;fill-opacity:1;stroke:none;stroke-width:0.989949;stroke-dasharray:none;stroke-opacity:1"
       d="m 183.84776,228.09754 c 0,-5.54531 1.80932,-27.69556 3.55168,-43.48087 0.76894,-6.96636 1.39807,-12.93258 1.39807,-13.25825 0,-0.32567 18.59314,-0.59213 41.3181,-0.59213 38.7406,0 41.34078,0.0772 41.68182,1.23743 0.82745,2.8151 5.38389,52.74899 5.38768,59.04342 7e-4,1.16602 -2.69271,1.23744 -46.6683,1.23744 h -46.66905 z"
       id="path7778" />
    <path
       style="fill:#57c510;fill-opacity:1;stroke:none;stroke-width:0.989949;stroke-dasharray:none;stroke-opacity:1"
       d="m 73.06344,226.0406 c 0.952632,-13.42076 5.353626,-30.63045 11.920039,-46.61225 l 3.558963,-8.66206 h 40.809158 40.80916 l -0.89208,6.89429 c -0.74511,5.75852 -2.31774,24.09754 -4.24457,49.49747 l -0.38889,5.12653 h -46.0075 -46.00749 z"
       id="path12817" />
    <path
       style="fill:#57c510;fill-opacity:1;stroke:none;stroke-width:0.989949;stroke-dasharray:none;stroke-opacity:1"
       d="m 100.40916,151.74447 c 0,-2.14503 16.3479,-20.65145 24.89857,-28.18612 18.39611,-16.21022 39.38848,-27.72934 62.82963,-34.476411 4.70328,-1.353747 8.68112,-2.461359 8.83964,-2.461359 0.15853,0 -0.86402,1.801242 -2.27231,4.002758 -5.72894,8.955774 -13.05616,28.612122 -18.21238,48.857332 l -3.01556,11.84018 -13.37604,0.43815 c -21.3683,0.69993 -59.69155,0.69061 -59.69155,-0.0145 z"
       id="path12819" />
    <path
       style="fill:#57c510;fill-opacity:1;stroke:none;stroke-width:0.989949;stroke-dasharray:none;stroke-opacity:1"
       d="m 193.04015,151.62577 c 0,-1.52302 3.71423,-15.36641 6.12737,-22.83747 7.44058,-23.03592 17.23292,-39.290407 26.49874,-43.985753 4.04977,-2.052177 5.01926,-2.091465 8.83651,-0.358101 11.08034,5.031427 22.78399,26.558204 30.40045,55.916254 1.3621,5.25026 2.63607,10.10278 2.83104,10.78337 0.33445,1.16742 -1.76872,1.23744 -37.1698,1.23744 -26.15468,0 -37.52431,-0.22898 -37.52431,-0.75574 z"
       id="path12821" />
    <path
       style="fill:#57c510;fill-opacity:1;stroke:none;stroke-width:0.989949;stroke-dasharray:none;stroke-opacity:1"
       d="m 295.40365,212.08036 c -0.22354,-0.36169 -0.93196,-6.0665 -1.57427,-12.67734 -4.52589,-46.58172 -12.56345,-79.21436 -25.81948,-104.827488 -2.26439,-4.375224 -4.0688,-7.954952 -4.0098,-7.954952 0.059,0 3.35636,0.928687 7.32748,2.063749 16.92845,4.83864 33.05669,12.193371 46.78245,21.333541 13.52499,9.00646 38.28468,32.87621 38.26336,36.88805 -0.005,0.87258 -1.05738,3.49569 -2.33942,5.82914 -1.80069,3.27744 -3.04549,4.61274 -5.47165,5.86944 -3.35587,1.73826 -4.09446,1.72498 -11.25042,-0.20235 -6.31609,-1.70112 -14.7251,-1.24377 -19.49663,1.06039 -5.02639,2.42723 -15.36613,12.83461 -17.58981,17.70489 -2.95949,6.48182 -3.07278,13.04187 -0.39061,22.61766 0.5016,1.79077 0.69329,4.3057 0.43367,5.68958 -0.50118,2.67154 -4.19581,7.68824 -4.86487,6.60569 z"
       id="path12823" />
    <path
       style="fill:#57c510;fill-opacity:1;stroke:none;stroke-width:0.989949;stroke-dasharray:none;stroke-opacity:1"
       d="m 365.57094,129.6945 c -2.91502,-3.55733 -9.03577,-10.07239 -13.60168,-14.47791 -4.78682,-4.61868 -8.15118,-8.40117 -7.94628,-8.93386 0.7362,-1.91395 29.2461,-16.781936 37.4623,-19.536682 5.07149,-1.700381 14.31157,-3.661002 17.2537,-3.661002 1.21337,0 2.9557,0.72632 4.09568,1.707347 1.79068,1.541003 1.96735,2.097402 1.81337,5.710889 -0.30935,7.259672 -7.27072,24.944268 -15.17235,38.543708 l -3.90305,6.71751 -7.35083,0.19894 -7.35082,0.19894 z m -1.41095,-4.42701 c 0,-0.13418 -0.71594,-0.85012 -1.59099,-1.59099 l -1.59099,-1.34703 1.34703,1.59099 c 1.26588,1.49514 1.83495,1.9129 1.83495,1.34703 z m -5.65685,-6.32093 c 0,-0.11051 -1.82964,-1.94015 -4.06587,-4.06586 l -4.06586,-3.86494 3.86493,4.06587 c 3.59065,3.77731 4.2668,4.38978 4.2668,3.86493 z m -8.48528,-7.7985 c 0,-0.1217 -1.03415,-1.15584 -2.2981,-2.2981 l -2.2981,-2.07684 2.07684,2.2981 c 1.9359,2.14215 2.51936,2.62312 2.51936,2.07684 z"
       id="path12825" />
    <path
       style="fill:#57c510;fill-opacity:1;stroke:none;stroke-width:0.989949;stroke-dasharray:none;stroke-opacity:1"
       d="m 188.19392,306.00046 c -1.37815,-10.81247 -3.58633,-35.19675 -4.08232,-45.07994 l -0.47898,-9.54406 h 46.8297 46.82971 l -0.49,6.54074 c -0.3922,5.23523 -0.79092,6.87592 -1.99763,8.22007 -2.97378,3.31248 -24.39621,23.28671 -37.0656,34.55989 l -12.91362,11.49048 h -17.92132 -17.92133 z"
       id="path12827" />
    <path
       style="fill:#57c510;fill-opacity:1;stroke:none;stroke-width:0.989949;stroke-dasharray:none;stroke-opacity:1"
       d="m 253.85133,311.88884 c 0,-0.86063 19.46978,-17.30583 19.69363,-16.63429 0.28032,0.84097 -1.14397,13.59885 -1.75227,15.69566 -0.31706,1.0929 -1.38578,1.23743 -9.15017,1.23743 -4.83515,0 -8.79119,-0.13446 -8.79119,-0.2988 z"
       id="path12829" />
    <path
       style="fill:#57c510;fill-opacity:1;stroke:none;stroke-width:0.989949;stroke-dasharray:none;stroke-opacity:1"
       d="m 265.15911,394.22036 c 0.82752,-1.16215 3.06205,-5.43995 4.96563,-9.50623 12.29508,-26.26385 20.18112,-61.27207 24.4212,-108.41216 0.54771,-6.08918 1.53103,-6.57396 4.17687,-2.05919 2.08197,3.55261 2.22585,5.8404 0.69214,11.00498 -1.47048,4.95165 -1.46144,14.62693 0.0178,19.0806 2.22643,6.70313 14.41785,18.80269 20.70462,20.54859 3.93053,1.09155 14.96216,0.91299 18.9847,-0.30728 7.65696,-2.32282 11.19348,-0.66428 15.31384,7.18183 l 2.65033,5.04681 -4.5092,5.54911 c -14.70822,18.10027 -40.20356,36.90577 -62.66329,46.2208 -5.33988,2.21468 -23.39349,7.76513 -25.25717,7.76513 -0.7526,0 -0.62749,-0.52607 0.5025,-2.11299 z"
       id="path12831" />
    <path
       style="fill:#57c510;fill-opacity:1;stroke:none;stroke-width:0.989949;stroke-dasharray:none;stroke-opacity:1"
       d="m 225.92062,399.09803 c -4.39208,-2.51623 -6.81603,-4.67316 -10.08718,-8.97595 -3.57364,-4.70067 -12.2184,-21.65822 -14.75038,-28.9343 l -1.28035,-3.67932 1.74524,-1.87961 c 0.95989,-1.03379 8.01339,-6.9353 15.67445,-13.11447 l 13.92921,-11.23485 h 18.02565 c 9.9141,0 18.1988,0.28018 18.41045,0.62263 0.46224,0.74792 -4.83763,19.40637 -8.45972,29.78284 -5.37308,15.39265 -14.39312,30.47407 -21.09228,35.26608 -3.76167,2.69078 -9.41663,3.69291 -12.11509,2.14695 z"
       id="path12833" />
    <path
       style="fill:#57c510;fill-opacity:1;stroke:none;stroke-width:0.989949;stroke-dasharray:none;stroke-opacity:1"
       d=""
       id="path12835" />
    <path
       style="fill:#57c510;fill-opacity:1;stroke:none;stroke-width:0.989949;stroke-dasharray:none;stroke-opacity:1"
       d="m 134.99243,367.97085 c -8.22561,-6.29788 -25.2244,-23.18694 -30.58776,-30.39031 -2.19753,-2.95144 -3.99551,-5.57657 -3.99551,-5.83363 0,-0.25706 16.47165,-0.46738 36.60366,-0.46738 h 36.60367 l 1.63164,7.60139 c 0.89741,4.18077 1.7964,8.29484 1.99777,9.14239 0.32031,1.34819 -1.77165,2.96797 -16.72133,12.94714 -9.3981,6.27339 -17.49068,11.56089 -17.98352,11.75001 -0.49284,0.18913 -3.88972,-1.9482 -7.54862,-4.74961 z"
       id="path12837" />
    <path
       style="fill:#57c510;fill-opacity:1;stroke:none;stroke-width:0.989949;stroke-dasharray:none;stroke-opacity:1"
       d="m 184.90842,393.22118 c -12.07472,-4.06069 -22.26164,-7.95249 -23.20166,-8.86395 -0.46898,-0.45472 19.29204,-14.74357 21.37964,-15.45925 0.33972,-0.11646 1.18442,1.31543 1.8771,3.18198 1.76056,4.74414 8.28472,18.34787 10.52945,21.95529 1.0285,1.65286 1.61331,3.00194 1.29959,2.99795 -0.31372,-0.004 -5.66158,-1.7194 -11.88412,-3.81202 z"
       id="path12839" />
    <path
       style="fill:#57c510;fill-opacity:1;stroke:none;stroke-width:0.989949;stroke-dasharray:none;stroke-opacity:1"
       d="m 73.539105,398.45467 c -4.35468,-4.35468 1.852923,-24.64043 12.935772,-42.27265 5.444686,-7.5342 3.487249,-9.91633 9.872848,-1.77574 5.333975,6.3938 19.059145,19.82262 24.343995,23.81838 2.00116,1.51303 3.48801,3.14304 3.30413,3.62225 -0.32546,0.84812 -18.06808,9.64583 -26.954951,13.36565 -5.513914,2.30798 -15.10079,4.64481 -19.082377,4.65137 -2.067243,0.003 -3.446597,-0.43644 -4.419417,-1.40926 z"
       id="path12841"
       sodipodi:nodetypes="sccssscs" />
    <path
       style="fill:#57c510;fill-opacity:1;stroke:none;stroke-width:0.989949;stroke-dasharray:none;stroke-opacity:1"
       d="M 86.948923,308.82889 C 79.38802,291.96173 74.12273,272.54379 73.06344,257.62044 l -0.44321,-6.24398 h 45.99606 45.99606 l 0.40765,4.77297 c 0.22422,2.62513 0.59487,7.79585 0.82366,11.49049 0.58929,9.51573 3.07607,36.43913 3.77281,40.84663 l 0.58506,3.70109 h -40.8735 -40.873505 z"
       id="path12843" />
    <path
       style="fill:#57c510;fill-opacity:1;stroke:none;stroke-width:0.35;stroke-dasharray:none;stroke-opacity:1"
       d="m 193.12953,334.56063 c -0.66089,-3.85571 -0.96479,-3.57273 3.75229,-3.49386 2.19625,0.0367 4.14959,0.12362 4.34076,0.19311 0.21013,0.0764 -1.16605,1.26104 -3.48007,2.99574 -2.10521,1.57816 -3.90546,2.86938 -4.00054,2.86938 -0.0951,0 -0.37068,-1.15397 -0.61244,-2.56437 z"
       id="path12845" />
  </g>
</svg>
